<svg width="50" height="50" viewBox="0 0 50 50" fill="none" xmlns="http://www.w3.org/2000/svg">
    <g opacity="0.75">
        <path d="M34.6802 35.5079C34.8898 32.4386 35 29.2585 35 26C35 24.6799 34.9819 23.3726 34.9464 22.0803C34.9214 21.1658 34.5978 20.277 34.0072 19.5396C31.7726 16.7498 29.9905 15.0133 27.0576 12.9376C26.2456 12.3629 25.249 12.0512 24.2234 12.0307C23.2032 12.0104 22.1378 12 21 12C17.5552 12 14.7746 12.0949 11.8994 12.2756C9.43313 12.4307 7.47434 14.2306 7.31985 16.4922C7.11019 19.5614 7 22.7416 7 26C7 29.2585 7.11019 32.4386 7.31985 35.5079C7.47434 37.7694 9.43313 39.5693 11.8994 39.7244C14.7746 39.9051 17.5552 40 21 40C24.4448 40 27.2254 39.9051 30.1006 39.7244C32.5669 39.5693 34.5257 37.7694 34.6802 35.5079Z" stroke="white" stroke-width="3"/>
        <path d="M42.68 26.5078C42.8899 23.4386 43 20.2585 43 17C43 15.6799 42.9819 14.3726 42.9465 13.0804C42.9215 12.1658 42.5977 11.277 42.0071 10.5396C39.7724 7.74975 37.9904 6.01331 35.0575 3.93759C34.2454 3.36292 33.2488 3.05121 32.2234 3.03072C31.2031 3.01035 30.1378 3 29 3C25.5552 3 22.7746 3.09486 19.8994 3.27564C17.4331 3.43071 15.4743 5.23056 15.3198 7.49223C15.1102 10.5614 15 13.7416 15 17C15 20.2585 15.1102 23.4386 15.3198 26.5078C15.4743 28.7695 17.4331 30.5693 19.8994 30.7244C22.7746 30.9051 25.5552 31 29 31C32.4448 31 35.2255 30.9051 38.1005 30.7244C40.567 30.5693 42.5258 28.7695 42.68 26.5078Z" fill="white" stroke="white" stroke-width="3"/>
    </g>
</svg>
