<svg width="102" height="101" viewBox="0 0 102 101" fill="none" xmlns="http://www.w3.org/2000/svg">
    <path d="M69.7761 83.938C70.26 76.3304 70.5144 68.4479 70.5144 60.3713C70.5144 57.0992 70.4727 53.8589 70.3908 50.6558C70.3329 48.389 69.586 46.186 68.2226 44.3582C63.0643 37.4432 58.9505 33.1391 52.1799 27.9941C50.3055 26.5697 48.005 25.7971 45.6375 25.7463C43.2824 25.6958 40.8231 25.6702 38.1966 25.6702C30.2445 25.6702 23.8257 25.9053 17.1887 26.3533C11.4954 26.7377 6.9737 31.199 6.61706 36.8049C6.13309 44.4123 5.87872 52.2948 5.87872 60.3713C5.87872 68.4479 6.13309 76.3304 6.61706 83.938C6.9737 89.5436 11.4954 94.0049 17.1887 94.3894C23.8257 94.8371 30.2445 95.0724 38.1966 95.0724C46.1487 95.0724 52.5674 94.8371 59.2045 94.3894C64.8977 94.0049 69.4195 89.5436 69.7761 83.938Z" stroke="#AA4545" stroke-width="5"/>
    <path d="M94.9119 64.4986C95.3965 56.8911 95.6507 49.0086 95.6507 40.932C95.6507 37.6599 95.6088 34.4196 95.5272 31.2165C95.4694 28.9497 94.722 26.7467 93.3587 24.9189C88.2001 18.0038 84.0863 13.6998 77.316 8.55479C75.4415 7.13039 73.1409 6.35776 70.7736 6.30699C68.4185 6.25649 65.9593 6.23083 63.3328 6.23083C55.3807 6.23083 48.9619 6.46596 42.3249 6.91404C36.6316 7.2984 32.1099 11.7596 31.7532 17.3655C31.2692 24.973 31.0149 32.8554 31.0149 40.932C31.0149 49.0086 31.2693 56.8911 31.7532 64.4986C32.1099 70.1044 36.6316 74.5656 42.3249 74.9501C48.9619 75.3979 55.3807 75.6331 63.3328 75.6331C71.2848 75.6331 77.7038 75.3979 84.3405 74.9501C90.0342 74.5656 94.556 70.1045 94.9119 64.4986Z" fill="#AA4545" stroke="#AA4545" stroke-width="5"/>
</svg>
