<svg width="160" height="60" viewBox="0 0 160 60" fill="none" xmlns="http://www.w3.org/2000/svg">
    <rect width="160" height="60" rx="10" fill="#8A8A8A"/>
    <g filter="url(#filter0_d_7_1771)">
        <path d="M27.804 38.688H36.264V42H23.7V16.98H27.804V38.688ZM57.8761 31.596C57.8761 32.34 57.8281 33.012 57.7321 33.612H42.5761C42.6961 35.196 43.2841 36.468 44.3401 37.428C45.3961 38.388 46.6921 38.868 48.2281 38.868C50.4361 38.868 51.9961 37.944 52.9081 36.096H57.3361C56.7361 37.92 55.6441 39.42 54.0601 40.596C52.5001 41.748 50.5561 42.324 48.2281 42.324C46.3321 42.324 44.6281 41.904 43.1161 41.064C41.6281 40.2 40.4521 39 39.5881 37.464C38.7481 35.904 38.3281 34.104 38.3281 32.064C38.3281 30.024 38.7361 28.236 39.5521 26.7C40.3921 25.14 41.5561 23.94 43.0441 23.1C44.5561 22.26 46.2841 21.84 48.2281 21.84C50.1001 21.84 51.7681 22.248 53.2321 23.064C54.6961 23.88 55.8361 25.032 56.6521 26.52C57.4681 27.984 57.8761 29.676 57.8761 31.596ZM53.5921 30.3C53.5681 28.788 53.0281 27.576 51.9721 26.664C50.9161 25.752 49.6081 25.296 48.0481 25.296C46.6321 25.296 45.4201 25.752 44.4121 26.664C43.4041 27.552 42.8041 28.764 42.6121 30.3H53.5921ZM60.5468 31.992C60.5468 30 60.9548 28.236 61.7708 26.7C62.6108 25.164 63.7388 23.976 65.1548 23.136C66.5948 22.272 68.1788 21.84 69.9068 21.84C71.4668 21.84 72.8228 22.152 73.9748 22.776C75.1508 23.376 76.0868 24.132 76.7828 25.044V22.164H80.9228V42H76.7828V39.048C76.0868 39.984 75.1388 40.764 73.9388 41.388C72.7388 42.012 71.3708 42.324 69.8348 42.324C68.1308 42.324 66.5708 41.892 65.1548 41.028C63.7388 40.14 62.6108 38.916 61.7708 37.356C60.9548 35.772 60.5468 33.984 60.5468 31.992ZM76.7828 32.064C76.7828 30.696 76.4948 29.508 75.9188 28.5C75.3668 27.492 74.6348 26.724 73.7228 26.196C72.8108 25.668 71.8268 25.404 70.7708 25.404C69.7148 25.404 68.7308 25.668 67.8188 26.196C66.9068 26.7 66.1628 27.456 65.5868 28.464C65.0348 29.448 64.7588 30.624 64.7588 31.992C64.7588 33.36 65.0348 34.56 65.5868 35.592C66.1628 36.624 66.9068 37.416 67.8188 37.968C68.7548 38.496 69.7388 38.76 70.7708 38.76C71.8268 38.76 72.8108 38.496 73.7228 37.968C74.6348 37.44 75.3668 36.672 75.9188 35.664C76.4948 34.632 76.7828 33.432 76.7828 32.064ZM90.4173 25.044C91.0173 24.036 91.8093 23.256 92.7933 22.704C93.8013 22.128 94.9893 21.84 96.3573 21.84V26.088H95.3133C93.7053 26.088 92.4813 26.496 91.6413 27.312C90.8253 28.128 90.4173 29.544 90.4173 31.56V42H86.3133V22.164H90.4173V25.044ZM110.138 21.84C111.698 21.84 113.09 22.164 114.314 22.812C115.562 23.46 116.534 24.42 117.23 25.692C117.926 26.964 118.274 28.5 118.274 30.3V42H114.206V30.912C114.206 29.136 113.762 27.78 112.874 26.844C111.986 25.884 110.774 25.404 109.238 25.404C107.702 25.404 106.478 25.884 105.566 26.844C104.678 27.78 104.234 29.136 104.234 30.912V42H100.13V22.164H104.234V24.432C104.906 23.616 105.758 22.98 106.79 22.524C107.846 22.068 108.962 21.84 110.138 21.84Z" fill="white"/>
        <path d="M125.237 36.42C127.541 34.428 129.353 32.796 130.673 31.524C132.017 30.228 133.133 28.884 134.021 27.492C134.909 26.1 135.353 24.708 135.353 23.316C135.353 21.876 135.005 20.748 134.309 19.932C133.637 19.116 132.569 18.708 131.105 18.708C129.689 18.708 128.585 19.164 127.793 20.076C127.025 20.964 126.617 22.164 126.569 23.676H122.609C122.681 20.94 123.497 18.852 125.057 17.412C126.641 15.948 128.645 15.216 131.069 15.216C133.685 15.216 135.725 15.936 137.189 17.376C138.677 18.816 139.421 20.736 139.421 23.136C139.421 24.864 138.977 26.532 138.089 28.14C137.225 29.724 136.181 31.152 134.957 32.424C133.757 33.672 132.221 35.124 130.349 36.78L128.729 38.22H140.141V41.64H122.645V38.652L125.237 36.42Z" fill="#B85454"/>
    </g>
    <defs>
        <filter id="filter0_d_7_1771" x="13.7" y="9.216" width="136.441" height="47.108" filterUnits="userSpaceOnUse" color-interpolation-filters="sRGB">
            <feFlood flood-opacity="0" result="BackgroundImageFix"/>
            <feColorMatrix in="SourceAlpha" type="matrix" values="0 0 0 0 0 0 0 0 0 0 0 0 0 0 0 0 0 0 127 0" result="hardAlpha"/>
            <feOffset dy="4"/>
            <feGaussianBlur stdDeviation="5"/>
            <feComposite in2="hardAlpha" operator="out"/>
            <feColorMatrix type="matrix" values="0 0 0 0 0 0 0 0 0 0 0 0 0 0 0 0 0 0 0.25 0"/>
            <feBlend mode="normal" in2="BackgroundImageFix" result="effect1_dropShadow_7_1771"/>
            <feBlend mode="normal" in="SourceGraphic" in2="effect1_dropShadow_7_1771" result="shape"/>
        </filter>
    </defs>
</svg>
