<svg width="41" height="40" viewBox="0 0 41 40" fill="none" xmlns="http://www.w3.org/2000/svg">
    <path d="M28.7036 30.625V33.75C28.7036 37.1964 25.9241 40 22.5073 40H6.9392C3.52247 40 0.74292 37.1964 0.74292 33.75V6.25C0.74292 2.80365 3.52247 0 6.9392 0H22.5073C25.9241 0 28.7036 2.80365 28.7036 6.25V9.375C28.7036 10.238 28.0102 10.9375 27.1545 10.9375C26.2989 10.9375 25.6055 10.238 25.6055 9.375V6.25C25.6055 4.52698 24.2156 3.125 22.5073 3.125H6.9392C5.23098 3.125 3.84106 4.52698 3.84106 6.25V33.75C3.84106 35.473 5.23098 36.875 6.9392 36.875H22.5073C24.2156 36.875 25.6055 35.473 25.6055 33.75V30.625C25.6055 29.762 26.2989 29.0625 27.1545 29.0625C28.0102 29.0625 28.7036 29.762 28.7036 30.625ZM39.2648 17.316L35.7961 13.8171C35.1909 13.2068 34.2101 13.2068 33.6053 13.8171C33.0002 14.4272 33.0002 15.4166 33.6053 16.0266L36.0726 18.5156H17.4729C16.6172 18.5156 15.9238 19.2151 15.9238 20.0781C15.9238 20.9412 16.6172 21.6406 17.4729 21.6406H36.0726L33.6053 24.1296C33.0002 24.7397 33.0002 25.7291 33.6053 26.3391C33.9078 26.6443 34.3042 26.7969 34.7005 26.7969C35.0972 26.7969 35.4935 26.6443 35.7961 26.3391L39.2648 22.8403C40.7749 21.3171 40.7749 18.8391 39.2648 17.316Z" fill="white"/>
</svg>
