<svg width="36" height="27" viewBox="0 0 36 27" fill="none" xmlns="http://www.w3.org/2000/svg">
    <path d="M0 13.0677C0 11.687 1.11929 10.5677 2.5 10.5677H32.5C33.8807 10.5677 35 11.687 35 13.0677C35 14.4484 33.8807 15.5677 32.5 15.5677H2.5C1.11929 15.5677 0 14.4484 0 13.0677Z" fill="#D9D9D9"/>
    <path d="M20.1647 0.732233C21.141 -0.244078 22.7239 -0.244078 23.7002 0.732233L34.305 11.3371C35.2814 12.3134 35.2814 13.8963 34.305 14.8726C33.3287 15.8489 31.7458 15.8489 30.7695 14.8726L20.1647 4.26777C19.1884 3.29146 19.1884 1.70854 20.1647 0.732233Z" fill="#D9D9D9"/>
    <path d="M19.9793 25.689C19.0029 24.7127 19.0029 23.1298 19.9793 22.1535L30.5859 11.5469C31.5622 10.5706 33.1451 10.5706 34.1214 11.5469C35.0977 12.5232 35.0977 14.1061 34.1214 15.0824L23.5148 25.689C22.5385 26.6653 20.9556 26.6653 19.9793 25.689Z" fill="#D9D9D9"/>
</svg>
