<svg width="102" height="100" viewBox="0 0 102 100" fill="none" xmlns="http://www.w3.org/2000/svg">
    <path d="M89.3502 78.7761C89.9474 69.4077 90.2615 59.6993 90.2615 49.7512C90.2615 45.7222 90.2102 41.7325 90.1091 37.7888C90.0384 35.0182 89.1249 32.3258 87.4591 30.0917C81.1083 21.5762 76.0493 16.2823 67.7113 9.94859C65.42 8.20801 62.6083 7.26366 59.7148 7.2014C56.8132 7.139 53.7832 7.1073 50.5464 7.1073C40.748 7.1073 32.844 7.39778 24.6645 7.95129C17.7061 8.42223 12.1797 13.8745 11.7428 20.7261C11.1454 30.0947 10.8314 39.8032 10.8314 49.7512C10.8314 59.6993 11.1454 69.4077 11.7428 78.7761C12.1797 85.6283 17.7061 91.0803 24.6645 91.5508C32.844 92.1045 40.748 92.3951 50.5464 92.3951C60.3449 92.3951 68.2489 92.1045 76.4284 91.5508C83.3865 91.0803 88.9134 85.6283 89.3502 78.7761Z" stroke="#AA4545" stroke-width="5"/>
    <path d="M36.7816 49.8623H64.3114" stroke="#AA4545" stroke-width="5" stroke-linecap="round"/>
    <path d="M36.7816 28.4293H53.3944M36.7816 70.5178H64.2258H36.7816Z" stroke="#AA4545" stroke-width="5" stroke-linecap="round" stroke-linejoin="round"/>
</svg>
