<svg width="40" height="40" viewBox="0 0 40 40" fill="none" xmlns="http://www.w3.org/2000/svg">
    <path d="M33.8749 22.4745C33.7854 22.3613 33.7369 22.221 33.7372 22.0766V17.9235C33.7369 17.7791 33.7854 17.6388 33.8749 17.5256L35.7909 15.125C36.1354 14.6936 36.342 14.1682 36.3834 13.6175C36.4249 13.0668 36.2992 12.5165 36.0229 12.0383L34.9057 10.1046C34.63 9.62607 34.2166 9.24176 33.7192 9.0019C33.2217 8.76207 32.6634 8.67784 32.1174 8.76024L29.0817 9.22198C28.938 9.24213 28.792 9.21433 28.6657 9.1429L25.0689 7.06636C24.9421 6.99021 24.845 6.87327 24.7934 6.73473L23.6735 3.88778C23.4729 3.37421 23.1222 2.93301 22.6672 2.62174C22.2121 2.31048 21.6738 2.1436 21.1224 2.1429H18.8826C18.3313 2.1436 17.793 2.31048 17.3379 2.62174C16.8828 2.93301 16.5322 3.37421 16.3316 3.88778L15.2066 6.73473C15.153 6.8695 15.0561 6.98258 14.9311 7.05616L11.3265 9.1429C11.2005 9.2145 11.0542 9.24233 10.9107 9.22198L7.88264 8.76024C7.33659 8.67784 6.77836 8.76207 6.28093 9.0019C5.7835 9.24176 5.36996 9.62607 5.09439 10.1046L3.97704 12.0383C3.70073 12.5165 3.57507 13.0668 3.6165 13.6175C3.6579 14.1682 3.86447 14.6936 4.20919 15.125L6.12499 17.5256C6.21464 17.6388 6.26322 17.7791 6.26276 17.9235V22.0766C6.26322 22.221 6.21464 22.3613 6.12499 22.4745L4.20919 24.875C3.86447 25.3065 3.6579 25.8319 3.6165 26.3826C3.57507 26.9332 3.70073 27.4836 3.97704 27.9618L5.09439 29.8955C5.36996 30.374 5.7835 30.7583 6.28093 30.998C6.77836 31.238 7.33659 31.3223 7.88264 31.2398L10.9184 30.778C11.0619 30.7578 11.2081 30.7855 11.3342 30.8572L14.9311 32.9338C15.0561 33.0072 15.153 33.1203 15.2066 33.2552L16.3265 36.1123C16.527 36.6258 16.8777 37.0672 17.3328 37.3783C17.7879 37.6895 18.3262 37.8566 18.8776 37.8572H21.1122C21.6636 37.8566 22.2019 37.6895 22.657 37.3783C23.112 37.0672 23.4627 36.6258 23.6633 36.1123L24.7832 33.2552C24.8368 33.1203 24.9337 33.0072 25.0587 32.9338L28.6557 30.8572C28.7817 30.7858 28.928 30.758 29.0714 30.778L32.1072 31.2398C32.6532 31.3223 33.2114 31.238 33.7089 30.998C34.2063 30.7583 34.6197 30.374 34.8954 29.8955L36.0129 27.9618C36.2892 27.4836 36.4146 26.9332 36.3732 26.3826C36.332 25.8319 36.1254 25.3065 35.7806 24.875L33.8749 22.4745ZM20 25.7398C18.8648 25.7398 17.755 25.4032 16.8111 24.7725C15.8672 24.1418 15.1316 23.2454 14.6971 22.1966C14.2627 21.1478 14.149 19.9937 14.3705 18.8803C14.592 17.7668 15.1386 16.7441 15.9414 15.9414C16.7441 15.1387 17.7668 14.592 18.8802 14.3705C19.9936 14.1491 21.1477 14.2627 22.1965 14.6972C23.2453 15.1316 24.1418 15.8673 24.7725 16.8112C25.4032 17.7551 25.7398 18.8648 25.7398 20C25.7398 21.5223 25.1351 22.9823 24.0586 24.0587C22.9822 25.1351 21.5223 25.7398 20 25.7398Z" fill="white" stroke="white" stroke-width="1.73116"/>
</svg>
